<svg xmlns="http://www.w3.org/2000/svg">
  <defs>
    <symbol viewBox="0 0 32 32" id="icon-about">
      <path d="M2 6v20h5v5.094l1.625-1.313L13.344 26H30V6zm2 2h24v16H12.656l-.281.219L9 26.906V24H4zm11 2v2h2v-2zm0 4v8h2v-8z"/>
    </symbol>
    <symbol viewBox="0 0 32 32" id="icon-add">
      <path d="M16 3C8.832 3 3 8.832 3 16s5.832 13 13 13 13-5.832 13-13S23.168 3 16 3zm0 2c6.086 0 11 4.914 11 11s-4.914 11-11 11S5 22.086 5 16 9.914 5 16 5zm-1 6v4h-4v2h4v4h2v-4h4v-2h-4v-4z"/>
    </symbol>
    <symbol viewBox="0 0 32 32" id="icon-administrative-tools">
      <path d="M16.031 4c-1.11 0-2.218.156-3.312.469l-.781.218L12 5.5c.043.738-.32 1.45-1 1.844a1.973 1.973 0 01-2.094-.063l-.656-.437-.594.531a12.028 12.028 0 00-3.281 5.719l-.188.781.688.344C5.535 14.55 6 15.21 6 16c0 .79-.465 1.45-1.125 1.781l-.719.344.219.781c.262 1.051.645 2.102 1.219 3.094a12.158 12.158 0 002.062 2.625l.594.563.656-.438c.617-.406 1.41-.488 2.094-.094a1.977 1.977 0 011 1.844l-.063.813.782.218c1.39.395 2.84.508 4.281.375V32h15V18h-4.406l-.469-.219C26.465 17.45 26 16.79 26 16c0-.79.465-1.45 1.125-1.781l.719-.344-.219-.781c-.262-1.051-.645-2.102-1.219-3.094a12.158 12.158 0 00-2.062-2.625l-.563-.563-.687.47A1.973 1.973 0 0121 7.343l-.031-.032A1.974 1.974 0 0120 5.5l.063-.813-.782-.218C18.223 4.168 17.141 4 16.031 4zM16 6.094c.742 0 1.496.086 2.219.25.21 1.093.742 2.117 1.781 2.718 1.05.606 2.219.536 3.281.157.504.539.992 1.117 1.375 1.781.387.672.63 1.379.844 2.094-.852.73-1.5 1.699-1.5 2.906 0 .73.215 1.41.563 2h-2.907A5.83 5.83 0 0022 16c0-3.3-2.7-6-6-6s-6 2.7-6 6 2.7 6 6 6c.344 0 .672-.04 1-.094v4c-1.09.102-2.168.016-3.219-.218-.207-1.106-.73-2.145-1.781-2.75-1.05-.606-2.219-.536-3.281-.157-.508-.543-.992-1.117-1.375-1.781-.387-.672-.63-1.379-.844-2.094C7.352 18.176 8 17.207 8 16s-.648-2.176-1.5-2.906c.434-1.426 1.21-2.723 2.25-3.844 1.05.36 2.21.41 3.25-.188 1.04-.597 1.57-1.624 1.781-2.718A9.987 9.987 0 0116 6.094zM16 12c2.219 0 4 1.781 4 4a3.94 3.94 0 01-.563 2H17v1.844A3.69 3.69 0 0116 20c-2.219 0-4-1.781-4-4 0-2.219 1.781-4 4-4zm3 8h11v1H19zm0 3h11v7H19zm7.281.781L24 26.063l-1.281-1.282-1.438 1.438 2 2 .719.687.719-.687 3-3z"/>
    </symbol>
    <symbol viewBox="0 0 32 32" id="icon-calendar">
      <path d="M9 4v1H5v22h22V5h-4V4h-2v1H11V4zM7 7h2v1h2V7h10v1h2V7h2v2H7zm0 4h18v14H7zm6 2v2h2v-2zm4 0v2h2v-2zm4 0v2h2v-2zM9 17v2h2v-2zm4 0v2h2v-2zm4 0v2h2v-2zm4 0v2h2v-2zM9 21v2h2v-2zm4 0v2h2v-2zm4 0v2h2v-2z"/>
    </symbol>
    <symbol viewBox="0 0 32 32" id="icon-edit-user">
      <path d="M14 4c-3.854 0-7 3.146-7 7a7.004 7.004 0 003.088 5.799C6.513 18.325 4 21.874 4 26h2c0-2.618 1.27-4.938 3.22-6.398C10.319 21.054 12.05 22 14 22c1.95 0 3.68-.944 4.777-2.395a8.09 8.09 0 011.774 1.817l1.426-1.428a10.074 10.074 0 00-4.084-3.183A7.003 7.003 0 0021 11c0-3.854-3.146-7-7-7zm0 2c2.773 0 5 2.227 5 5s-2.227 5-5 5-5-2.227-5-5 2.227-5 5-5zm15 11c-.75 0-1.5.3-2.1.9l-8.8 8.8L17 32l5.3-1.1 8.8-8.8c.6-.6.9-1.35.9-2.1s-.3-1.5-.9-2.1c-.6-.6-1.35-.9-2.1-.9zm-15 1c1.074 0 2.095.22 3.031.605A3.98 3.98 0 0114 20a3.982 3.982 0 01-3.037-1.398A7.953 7.953 0 0114 18zm15 1c.25 0 .5.1.7.3.4.4.4 1 0 1.4l-8.4 8.4-1.7.3.3-1.7 8.4-8.4c.2-.2.45-.3.7-.3z"/>
    </symbol>
    <symbol viewBox="0 0 32 32" id="icon-login-rounded-right">
      <path d="M16 4C10.422 4 5.742 7.832 4.406 13H6.47C7.746 8.945 11.53 6 16 6c5.516 0 10 4.484 10 10s-4.484 10-10 10c-4.469 0-8.254-2.945-9.531-7H4.406c1.336 5.168 6.016 9 11.594 9 6.617 0 12-5.383 12-12S22.617 4 16 4zm-.656 7.281l-1.438 1.438L16.187 15H4v2h12.188l-2.282 2.281 1.438 1.438 4-4L20.03 16l-.687-.719z"/>
    </symbol>
    <symbol viewBox="0 0 32 32" id="icon-logout-rounded-left">
      <path d="M16 4c-4.05 0-7.64 2.012-9.813 5.094l1.625 1.156A9.985 9.985 0 0116 6c5.535 0 10 4.465 10 10s-4.465 10-10 10a9.99 9.99 0 01-8.188-4.25l-1.625 1.156A11.987 11.987 0 0016 28c6.617 0 12-5.383 12-12S22.617 4 16 4zm-7.344 7.281l-4 4L3.97 16l.687.719 4 4 1.438-1.438L7.813 17H20v-2H7.812l2.282-2.281z"/>
    </symbol>
    <symbol viewBox="0 0 32 32" id="icon-membership-card">
      <path d="M5 6C3.355 6 2 7.355 2 9v14c0 1.645 1.355 3 3 3h22c1.645 0 3-1.355 3-3V9c0-1.645-1.355-3-3-3zm0 2h22c.566 0 1 .434 1 1v14c0 .566-.434 1-1 1H5c-.566 0-1-.434-1-1V9c0-.566.434-1 1-1zm7 2l-1.832 4-4.477.582L9 17.598 8 22l4-2.25L16 22l-1-4.402 3.309-3.016L13.832 14zm0 4.8l.016.032.457 1.008 1.101.144.196.028-.118.105-.863.785.258 1.137.004.008-.07-.04-.981-.55-.98.55-.07.04.003-.008.254-1.137-.86-.785-.12-.105.199-.028 1.097-.144.461-1.008zm6 5.2v2h2v-2zm3 0v2h2v-2zm3 0v2h2v-2z"/>
    </symbol>
    <symbol viewBox="0 0 32 32" id="icon-menu">
      <path d="M4 7v2h24V7zm0 8v2h24v-2zm0 8v2h24v-2z"/>
    </symbol>
    <symbol viewBox="0 0 32 32" id="icon-tear-off-calendar">
      <path d="M9 4v1H5v22h22V5h-4V4h-2v1H11V4zM7 7h2v1h2V7h10v1h2V7h2v2H7zm0 4h18v14H7zm6 2v2h2v-2zm4 0v2h2v-2zm4 0v2h2v-2zm-5 3v4h4v-4zm-7 1v2h2v-2zm4 0v2h2v-2zm8 0v2h2v-2zM9 21v2h2v-2zm4 0v2h2v-2zm4 0v2h2v-2z"/>
    </symbol>
  </defs>
</svg>