<svg xmlns="http://www.w3.org/2000/svg">
  <defs>
    <symbol viewBox="0 0 32 32" id="icon-about">
      <path d="M2 6v20h5v5.094l1.625-1.313L13.344 26H30V6zm2 2h24v16H12.656l-.281.219L9 26.906V24H4zm11 2v2h2v-2zm0 4v8h2v-8z"/>
    </symbol>
    <symbol viewBox="0 0 32 32" id="icon-add">
      <path d="M16 3C8.832 3 3 8.832 3 16s5.832 13 13 13 13-5.832 13-13S23.168 3 16 3zm0 2c6.086 0 11 4.914 11 11s-4.914 11-11 11S5 22.086 5 16 9.914 5 16 5zm-1 6v4h-4v2h4v4h2v-4h4v-2h-4v-4z"/>
    </symbol>
    <symbol viewBox="0 0 32 32" id="icon-add-user-female">
      <path d="M12 2C8.145 2 5 5.145 5 9c0 2.41 1.23 4.55 3.094 5.813C4.527 16.343 2 19.883 2 24h2c0-4.43 3.57-8 8-8 1.375 0 2.656.36 3.781.969A8.007 8.007 0 0014 22c0 4.406 3.594 8 8 8 4.406 0 8-3.594 8-8 0-4.406-3.594-8-8-8a7.964 7.964 0 00-4.688 1.531A9.971 9.971 0 0016 14.844c1.098-.582 2.145-1.32 3.094-2.031 2.066-1.547 3.625-3.094 3.625-3.094L23.406 9l-.687-.688s-1.512-1.574-3.563-3.124C17.106 3.636 14.546 2 12 2zm0 2c1.574 0 4.02 1.363 5.938 2.813 1.457 1.101 2.05 1.718 2.53 2.187-.491.473-1.097 1.09-2.562 2.188C15.97 12.64 13.496 14 12 14c-2.773 0-5-2.227-5-5s2.227-5 5-5zm10 12c3.324 0 6 2.676 6 6s-2.676 6-6 6-6-2.676-6-6 2.676-6 6-6zm-1 2v3h-3v2h3v3h2v-3h3v-2h-3v-3z"/>
    </symbol>
    <symbol viewBox="0 0 32 32" id="icon-administrative-tools">
      <path d="M16.031 4c-1.11 0-2.218.156-3.312.469l-.781.218L12 5.5c.043.738-.32 1.45-1 1.844a1.973 1.973 0 01-2.094-.063l-.656-.437-.594.531a12.028 12.028 0 00-3.281 5.719l-.188.781.688.344C5.535 14.55 6 15.21 6 16c0 .79-.465 1.45-1.125 1.781l-.719.344.219.781c.262 1.051.645 2.102 1.219 3.094a12.158 12.158 0 002.062 2.625l.594.563.656-.438c.617-.406 1.41-.488 2.094-.094a1.977 1.977 0 011 1.844l-.063.813.782.218c1.39.395 2.84.508 4.281.375V32h15V18h-4.406l-.469-.219C26.465 17.45 26 16.79 26 16c0-.79.465-1.45 1.125-1.781l.719-.344-.219-.781c-.262-1.051-.645-2.102-1.219-3.094a12.158 12.158 0 00-2.062-2.625l-.563-.563-.687.47A1.973 1.973 0 0121 7.343l-.031-.032A1.974 1.974 0 0120 5.5l.063-.813-.782-.218C18.223 4.168 17.141 4 16.031 4zM16 6.094c.742 0 1.496.086 2.219.25.21 1.093.742 2.117 1.781 2.718 1.05.606 2.219.536 3.281.157.504.539.992 1.117 1.375 1.781.387.672.63 1.379.844 2.094-.852.73-1.5 1.699-1.5 2.906 0 .73.215 1.41.563 2h-2.907A5.83 5.83 0 0022 16c0-3.3-2.7-6-6-6s-6 2.7-6 6 2.7 6 6 6c.344 0 .672-.04 1-.094v4c-1.09.102-2.168.016-3.219-.218-.207-1.106-.73-2.145-1.781-2.75-1.05-.606-2.219-.536-3.281-.157-.508-.543-.992-1.117-1.375-1.781-.387-.672-.63-1.379-.844-2.094C7.352 18.176 8 17.207 8 16s-.648-2.176-1.5-2.906c.434-1.426 1.21-2.723 2.25-3.844 1.05.36 2.21.41 3.25-.188 1.04-.597 1.57-1.624 1.781-2.718A9.987 9.987 0 0116 6.094zM16 12c2.219 0 4 1.781 4 4a3.94 3.94 0 01-.563 2H17v1.844A3.69 3.69 0 0116 20c-2.219 0-4-1.781-4-4 0-2.219 1.781-4 4-4zm3 8h11v1H19zm0 3h11v7H19zm7.281.781L24 26.063l-1.281-1.282-1.438 1.438 2 2 .719.687.719-.687 3-3z"/>
    </symbol>
    <symbol viewBox="0 0 32 32" id="icon-calendar">
      <path d="M9 4v1H5v22h22V5h-4V4h-2v1H11V4zM7 7h2v1h2V7h10v1h2V7h2v2H7zm0 4h18v14H7zm6 2v2h2v-2zm4 0v2h2v-2zm4 0v2h2v-2zM9 17v2h2v-2zm4 0v2h2v-2zm4 0v2h2v-2zm4 0v2h2v-2zM9 21v2h2v-2zm4 0v2h2v-2zm4 0v2h2v-2z"/>
    </symbol>
    <symbol viewBox="0 0 32 32" id="icon-edit-calendar">
      <path d="M9 4v1H5v22h13.037L17 32l5.3-1.1 8.8-8.8c.6-.6.9-1.35.9-2.1s-.3-1.5-.9-2.1c-.6-.6-1.35-.9-2.1-.9-.71 0-1.417.28-2 .818V5h-4V4h-2v1H11V4H9zM7 7h2v1h2V7h10v1h2V7h2v2H7V7zm0 4h18v8.8L19.799 25H7V11zm6 2v2h2v-2h-2zm4 0v2h2v-2h-2zm4 0v2h2v-2h-2zM9 17v2h2v-2H9zm4 0v2h2v-2h-2zm4 0v2h2v-2h-2zm4 0v2h2v-2h-2zm8 2c.25 0 .5.1.7.3.4.4.4 1 0 1.4l-8.4 8.4-1.7.3.3-1.7 8.4-8.4c.2-.2.45-.3.7-.3zM9 21v2h2v-2H9zm4 0v2h2v-2h-2zm4 0v2h2v-2h-2z"/>
    </symbol>
    <symbol viewBox="0 0 32 32" id="icon-edit-file">
      <path d="M6 3v26h10.375l-.344 1.813-.312 1.468 1.469-.312 3.5-.688.312-.062.219-.219 9.875-9.906A2.968 2.968 0 0029 16.03c-.766 0-1.516.297-2.094.875l-.906.907v-8.22l-.281-.312-6-6L19.406 3zm2 2h10v6h6v8.813l-7 6.968-.219.219H8zm12 1.438L22.563 9H20zm9 11.53c.234 0 .465.122.688.345.445.445.445.93 0 1.375L20 29.374l-1.719.344.344-1.719 9.625-9.656.063-.032c.222-.222.453-.343.687-.343z"/>
    </symbol>
    <symbol viewBox="0 0 32 32" id="icon-edit-user">
      <path d="M14 4c-3.854 0-7 3.146-7 7a7.004 7.004 0 003.088 5.799C6.513 18.325 4 21.874 4 26h2c0-2.618 1.27-4.938 3.22-6.398C10.319 21.054 12.05 22 14 22c1.95 0 3.68-.944 4.777-2.395a8.09 8.09 0 011.774 1.817l1.426-1.428a10.074 10.074 0 00-4.084-3.183A7.003 7.003 0 0021 11c0-3.854-3.146-7-7-7zm0 2c2.773 0 5 2.227 5 5s-2.227 5-5 5-5-2.227-5-5 2.227-5 5-5zm15 11c-.75 0-1.5.3-2.1.9l-8.8 8.8L17 32l5.3-1.1 8.8-8.8c.6-.6.9-1.35.9-2.1s-.3-1.5-.9-2.1c-.6-.6-1.35-.9-2.1-.9zm-15 1c1.074 0 2.095.22 3.031.605A3.98 3.98 0 0114 20a3.982 3.982 0 01-3.037-1.398A7.953 7.953 0 0114 18zm15 1c.25 0 .5.1.7.3.4.4.4 1 0 1.4l-8.4 8.4-1.7.3.3-1.7 8.4-8.4c.2-.2.45-.3.7-.3z"/>
    </symbol>
    <symbol viewBox="0 0 32 32" id="icon-groups">
      <path d="M11.5 6A3.514 3.514 0 008 9.5c0 1.922 1.578 3.5 3.5 3.5S15 11.422 15 9.5 13.422 6 11.5 6zm9 0A3.514 3.514 0 0017 9.5c0 1.922 1.578 3.5 3.5 3.5S24 11.422 24 9.5 22.422 6 20.5 6zm-9 2c.84 0 1.5.66 1.5 1.5s-.66 1.5-1.5 1.5-1.5-.66-1.5-1.5.66-1.5 1.5-1.5zm9 0c.84 0 1.5.66 1.5 1.5s-.66 1.5-1.5 1.5-1.5-.66-1.5-1.5.66-1.5 1.5-1.5zM7 12c-2.2 0-4 1.8-4 4 0 1.113.477 2.117 1.219 2.844A5.036 5.036 0 002 23h2c0-1.668 1.332-3 3-3s3 1.332 3 3h2a5.036 5.036 0 00-2.219-4.156C10.523 18.117 11 17.114 11 16c0-2.2-1.8-4-4-4zm5 11c-.625.836-1 1.887-1 3h2c0-1.668 1.332-3 3-3s3 1.332 3 3h2a5.024 5.024 0 00-1-3c-.34-.453-.75-.84-1.219-1.156C19.523 21.117 20 20.114 20 19c0-2.2-1.8-4-4-4s-4 1.8-4 4c0 1.113.477 2.117 1.219 2.844A5.042 5.042 0 0012 23zm8 0h2c0-1.668 1.332-3 3-3s3 1.332 3 3h2a5.036 5.036 0 00-2.219-4.156C28.523 18.117 29 17.114 29 16c0-2.2-1.8-4-4-4s-4 1.8-4 4c0 1.113.477 2.117 1.219 2.844A5.036 5.036 0 0020 23zM7 14c1.117 0 2 .883 2 2s-.883 2-2 2-2-.883-2-2 .883-2 2-2zm18 0c1.117 0 2 .883 2 2s-.883 2-2 2-2-.883-2-2 .883-2 2-2zm-9 3c1.117 0 2 .883 2 2s-.883 2-2 2-2-.883-2-2 .883-2 2-2z"/>
    </symbol>
    <symbol viewBox="0 0 32 32" id="icon-home-page">
      <path d="M16 2.586L2.293 16.293l1.414 1.414L5 16.414V28h9v-9h4v9h9V16.414l1.293 1.293 1.414-1.414L25 11.586V7h-2v2.586l-7-7zm0 2.828l9 9V26h-5v-9h-8v9H7V14.414l9-9z"/>
    </symbol>
    <symbol viewBox="0 0 32 32" id="icon-invite">
      <path d="M16 1.813l-.563.343-12 8L3 10.47V28h26V10.469l-.438-.313-12-8zm0 2.406l10.25 6.843L16 18.75 5.75 11.062zM15 7v3h-3v2h3v3h2v-3h3v-2h-3V7zM5 13l10.406 7.813.594.437.594-.438L27 13v13H5z"/>
    </symbol>
    <symbol viewBox="0 0 32 32" id="icon-lifebuoy">
      <path d="M16 4C9.383 4 4 9.383 4 16s5.383 12 12 12 12-5.383 12-12S22.617 4 16 4zm0 2c.336 0 .672.031 1 .063v3.03A7.049 7.049 0 0016 9c-.34 0-.672.047-1 .094V6.063A10.57 10.57 0 0116 6zm-3 .438v3.25A7.01 7.01 0 009.687 13H6.47A9.982 9.982 0 0113 6.437zm6 0A10.068 10.068 0 0125.563 13h-3.25A6.993 6.993 0 0019 9.687zM16 11c2.773 0 5 2.227 5 5s-2.227 5-5 5-5-2.227-5-5 2.227-5 5-5zm-9.938 4h3A7.051 7.051 0 009 16c0 .34.047.672.094 1H6.063A10.57 10.57 0 016 16c0-.336.031-.672.063-1zm16.844 0h3.032c.03.328.062.664.062 1 0 .336-.031.672-.063 1h-3.03c.046-.328.093-.66.093-1 0-.34-.047-.672-.094-1zM6.438 19h3.25A6.993 6.993 0 0013 22.313v3.25A10.068 10.068 0 016.437 19zm15.875 0h3.25A10.068 10.068 0 0119 25.563v-3.25A6.993 6.993 0 0022.313 19zM15 22.906c.328.047.66.094 1 .094.34 0 .672-.047 1-.094v3.032A10.57 10.57 0 0116 26c-.336 0-.672-.031-1-.063z"/>
    </symbol>
    <symbol viewBox="0 0 32 32" id="icon-login-rounded-right">
      <path d="M16 4C10.422 4 5.742 7.832 4.406 13H6.47C7.746 8.945 11.53 6 16 6c5.516 0 10 4.484 10 10s-4.484 10-10 10c-4.469 0-8.254-2.945-9.531-7H4.406c1.336 5.168 6.016 9 11.594 9 6.617 0 12-5.383 12-12S22.617 4 16 4zm-.656 7.281l-1.438 1.438L16.187 15H4v2h12.188l-2.282 2.281 1.438 1.438 4-4L20.03 16l-.687-.719z"/>
    </symbol>
    <symbol viewBox="0 0 32 32" id="icon-logout-rounded-left">
      <path d="M16 4c-4.05 0-7.64 2.012-9.813 5.094l1.625 1.156A9.985 9.985 0 0116 6c5.535 0 10 4.465 10 10s-4.465 10-10 10a9.99 9.99 0 01-8.188-4.25l-1.625 1.156A11.987 11.987 0 0016 28c6.617 0 12-5.383 12-12S22.617 4 16 4zm-7.344 7.281l-4 4L3.97 16l.687.719 4 4 1.438-1.438L7.813 17H20v-2H7.812l2.282-2.281z"/>
    </symbol>
    <symbol viewBox="0 0 32 32" id="icon-membership-card">
      <path d="M5 6C3.355 6 2 7.355 2 9v14c0 1.645 1.355 3 3 3h22c1.645 0 3-1.355 3-3V9c0-1.645-1.355-3-3-3zm0 2h22c.566 0 1 .434 1 1v14c0 .566-.434 1-1 1H5c-.566 0-1-.434-1-1V9c0-.566.434-1 1-1zm7 2l-1.832 4-4.477.582L9 17.598 8 22l4-2.25L16 22l-1-4.402 3.309-3.016L13.832 14zm0 4.8l.016.032.457 1.008 1.101.144.196.028-.118.105-.863.785.258 1.137.004.008-.07-.04-.981-.55-.98.55-.07.04.003-.008.254-1.137-.86-.785-.12-.105.199-.028 1.097-.144.461-1.008zm6 5.2v2h2v-2zm3 0v2h2v-2zm3 0v2h2v-2z"/>
    </symbol>
    <symbol viewBox="0 0 32 32" id="icon-menu">
      <path d="M4 7v2h24V7zm0 8v2h24v-2zm0 8v2h24v-2z"/>
    </symbol>
    <symbol viewBox="0 0 32 32" id="icon-plus-2-math">
      <path d="M5 5v22h22V5zm2 2h18v18H7zm8 4v4h-4v2h4v4h2v-4h4v-2h-4v-4z"/>
    </symbol>
    <symbol viewBox="0 0 32 32" id="icon-remove-user-female">
      <path d="M12 2C8.145 2 5 5.145 5 9c0 2.41 1.23 4.55 3.094 5.813C4.527 16.343 2 19.883 2 24h2c0-4.43 3.57-8 8-8 1.375 0 2.656.36 3.781.969A8.007 8.007 0 0014 22c0 4.406 3.594 8 8 8 4.406 0 8-3.594 8-8 0-4.406-3.594-8-8-8a7.964 7.964 0 00-4.688 1.531A9.971 9.971 0 0016 14.844c1.098-.582 2.145-1.32 3.094-2.031 2.066-1.547 3.625-3.094 3.625-3.094L23.406 9l-.687-.688s-1.512-1.574-3.563-3.124C17.106 3.636 14.546 2 12 2zm0 2c1.574 0 4.02 1.363 5.938 2.813 1.457 1.101 2.05 1.718 2.53 2.187-.491.473-1.097 1.09-2.562 2.188C15.97 12.64 13.496 14 12 14c-2.773 0-5-2.227-5-5s2.227-5 5-5zm10 12c3.324 0 6 2.676 6 6s-2.676 6-6 6-6-2.676-6-6 2.676-6 6-6zm-2.281 2.281L18.28 19.72 20.563 22l-2.282 2.281 1.438 1.438L22 23.437l2.281 2.282 1.438-1.438L23.437 22l2.282-2.281-1.438-1.438L22 20.563z"/>
    </symbol>
    <symbol viewBox="0 0 32 32" id="icon-tear-off-calendar">
      <path d="M9 4v1H5v22h22V5h-4V4h-2v1H11V4zM7 7h2v1h2V7h10v1h2V7h2v2H7zm0 4h18v14H7zm6 2v2h2v-2zm4 0v2h2v-2zm4 0v2h2v-2zm-5 3v4h4v-4zm-7 1v2h2v-2zm4 0v2h2v-2zm8 0v2h2v-2zM9 21v2h2v-2zm4 0v2h2v-2zm4 0v2h2v-2z"/>
    </symbol>
    <symbol viewBox="0 0 32 32" id="icon-user">
      <path d="M16 5c-3.855 0-7 3.145-7 7 0 2.41 1.23 4.55 3.094 5.813C8.527 19.343 6 22.883 6 27h2a7.98 7.98 0 013.813-6.813A4.537 4.537 0 0016 23a4.537 4.537 0 004.188-2.813A7.98 7.98 0 0124 27h2c0-4.117-2.527-7.656-6.094-9.188A7.024 7.024 0 0023 12c0-3.855-3.145-7-7-7zm0 2c2.773 0 5 2.227 5 5s-2.227 5-5 5-5-2.227-5-5 2.227-5 5-5zm0 12c.82 0 1.602.117 2.344.344a2.485 2.485 0 01-4.688 0A7.985 7.985 0 0116 19z"/>
    </symbol>
  </defs>
</svg>